# xmcd
#
# Track frame offsets:
# 150
# 29252
# 48553
# 67961
# 88346
# 105892
# 122907
# 139189
# 154621
# 172049
# 189469
# 204996
# 219781
# 237216
# 255447
# 272763
#
# Disc length: 3837 seconds
#
#
# Revision: 0
# Processed by: cddbd v1.5.1PL2 Copyright (c) Steve Scherf et al.
# Submitted via: FreeRIP 2.944 
#
DISCID=d90efb10
DTITLE=Various Artist - Dance Inferno
DYEAR=1996
DGENRE=R&B
TTITLE0=Be My Lover
TTITLE1=Welcome To Tomorrow
TTITLE2=Mr Vain
TTITLE3=What Is Love
TTITLE4=Run Away
TTITLE5=Baby Baby (I Know You're A Lady)
TTITLE6=I Luv U Baby
TTITLE7=Don't Give Me Your Life
TTITLE8=I Like To Move It
TTITLE9=Surrender Your Love
TTITLE10=Hideaway
TTITLE11=Short Dick Man
TTITLE12=Move On Baby
TTITLE13=Human Nature
TTITLE14=Real Thing
TTITLE15=I'm Gonna Get You
EXTD=(16 Explosive Hits Of The 1990's]\n\nSummit - Sound and Media
EXTT0=
EXTT1=
EXTT2=
EXTT3=
EXTT4=
EXTT5=
EXTT6=
EXTT7=
EXTT8=
EXTT9=
EXTT10=
EXTT11=
EXTT12=
EXTT13=
EXTT14=
EXTT15=
PLAYORDER=
